<svg width="2162" height="2500" viewBox="0 0 2162 2500" fill="none" xmlns="http://www.w3.org/2000/svg">
<path d="M818.164 15.5664C663.607 50.1619 521.181 115.309 413.35 200.226C360.783 242.01 283.504 321.984 241.271 379.045C220.154 407.8 202.632 432.511 202.632 433.859C202.632 435.656 196.791 445.091 189.602 455.425C172.978 479.686 132.093 561.458 110.526 613.576C95.2504 650.418 86.2646 676.926 59.307 764.988C47.6254 802.279 25.1607 915.052 17.972 968.518C15.2762 990.533 10.7833 1021.98 8.53682 1038.16C6.29035 1054.33 3.1453 1139.25 1.79742 1227.31C0.000245247 1379.17 0.449538 1391.3 11.2326 1478.92C17.5227 1529.24 26.9579 1592.59 31.9001 1619.99C41.3352 1670.76 71.8872 1788.93 84.4674 1821.73C155.456 2009.53 221.053 2117.36 332.927 2229.24C414.249 2311.01 479.396 2357.28 582.285 2406.71C653.273 2441.3 742.682 2471.4 818.613 2487.13L874.775 2498.81L1121.89 2497.01C1368.1 2495.22 1368.55 2495.22 1413.48 2483.98C1592.75 2438.61 1728.43 2362.23 1853.78 2235.97C1929.27 2160.04 1981.38 2080.97 2016.88 1988.86C2049.23 1905.29 2057.76 1863.06 2061.36 1770.51C2072.14 1497.79 1943.64 1284.82 1696.08 1163.96C1675.86 1154.08 1658.34 1142.84 1656.99 1139.25C1655.2 1135.65 1652.95 1117.23 1651.6 1097.91C1647.11 1042.65 1629.59 963.576 1608.92 906.965C1564.44 784.757 1475.48 682.767 1370.79 632.896C1301.15 600.097 1249.93 586.618 1163.22 579.879C1081.45 573.14 1008.66 579.879 925.994 601.445C893.196 609.982 828.048 641.432 789.409 667.042C732.349 704.782 647.432 792.395 647.432 812.613C647.432 815.758 793.452 918.646 816.816 932.125C819.511 933.473 838.382 918.197 861.745 895.283C911.617 845.861 940.371 829.686 1018.1 808.569C1053.14 798.685 1167.26 800.033 1206.8 810.366C1325.87 841.817 1391.91 913.704 1422.46 1045.8C1427.41 1066.46 1427.41 1070.51 1421.56 1072.75C1417.97 1074.1 1392.81 1072.3 1364.95 1069.16C1301.6 1061.07 1104.36 1061.07 1054.04 1068.71C901.732 1092.52 787.612 1149.13 707.188 1241.69C600.256 1364.35 585.879 1559.79 673.042 1704.01C696.854 1743.55 752.567 1802.41 788.51 1826.22C893.645 1895.86 1021.24 1926.41 1154.68 1914.28C1403.14 1891.37 1564.44 1744.9 1626.89 1485.21C1632.28 1463.19 1637.67 1435.33 1639.02 1423.65C1643.07 1389.95 1648.91 1388.61 1683.95 1414.67C1784.59 1489.25 1838.06 1591.24 1845.25 1721.08C1853.78 1869.8 1781.9 2015.82 1645.76 2126.8C1541.98 2211.71 1440.88 2254.84 1284.98 2281.35C1216.69 2293.03 998.33 2293.03 928.24 2281.35C738.189 2249.45 593.517 2179.81 482.541 2066.59C419.191 2000.99 381.001 1947.08 338.767 1862.61C301.476 1788.48 264.185 1670.76 243.517 1563.83C223.299 1457.35 214.313 1335.14 217.458 1211.14C221.502 1061.97 233.184 975.257 265.982 841.817C297.882 711.073 359.435 582.125 430.873 494.064C499.615 409.147 573.748 349.841 672.143 301.766C733.696 271.664 754.364 263.576 804.685 250.098C818.164 246.503 840.628 240.662 854.107 237.068C892.297 226.734 966.43 216.401 1036.97 211.458C1138.51 204.719 1276.44 216.401 1359.56 238.865C1369.45 241.112 1384.72 245.155 1393.26 246.952C1429.65 255.04 1496.6 280.649 1547.82 305.81C1665.98 364.667 1762.13 450.482 1835.81 563.255C1861.42 602.793 1909.95 696.695 1909.95 706.58C1909.95 710.174 1911.74 714.667 1913.99 716.913C1918.93 722.754 1938.7 776.22 1948.14 809.917C1952.18 824.295 1957.12 836.875 1959.37 838.223C1962.96 840.469 2037.1 822.048 2121.11 798.685L2159.3 787.902L2160.65 771.727C2162 755.553 2135.94 670.187 2115.72 625.707C2025.86 424.423 1931.51 300.868 1779.65 185.849C1682.6 112.614 1537.48 48.8141 1395.51 16.9142L1332.6 2.98614L1107.96 2.08755L883.311 1.18896L818.164 15.5664ZM1321.37 1289.76C1391.91 1298.75 1422.46 1304.59 1427.41 1310.88C1436.39 1321.21 1423.36 1411.52 1404.94 1469.93C1367.65 1586.3 1304.3 1652.79 1202.31 1681.1C1150.64 1695.47 1051.35 1695.47 1000.13 1681.1C886.456 1649.65 824.004 1569.67 837.034 1473.07C845.57 1410.17 884.659 1362.1 953.85 1328.4C997.881 1306.84 1017.2 1301.44 1078.75 1292.01C1126.38 1284.82 1270.15 1283.47 1321.37 1289.76Z" fill="#656565"/>
</svg>
